<svg width="1440" height="910" viewBox="0 0 1440 910" fill="none" xmlns="http://www.w3.org/2000/svg">
<g clip-path="url(#clip0)">
<path d="M490.025 120.667C478.093 120.667 466.92 123.909 457.33 129.554C444.054 99.3301 413.876 78.2206 378.764 78.2206C332.775 78.2206 295.241 114.433 293.083 159.915C289.154 158.817 285.017 158.217 280.737 158.217C255.439 158.217 234.93 178.737 234.93 204.05C234.93 205.055 234.974 206.05 235.037 207.039H550.837C553.268 200.238 554.597 192.912 554.597 185.275C554.597 149.593 525.687 120.667 490.025 120.667Z" fill="white"/>
<path d="M1307 463.097C1301.39 463.097 1296.13 464.622 1291.62 467.278C1285.38 453.061 1271.18 443.131 1254.67 443.131C1233.03 443.131 1215.38 460.165 1214.36 481.559C1212.51 481.043 1210.57 480.761 1208.56 480.761C1196.65 480.761 1187.01 490.413 1187.01 502.32C1187.01 502.793 1187.03 503.261 1187.06 503.726H1335.61C1336.75 500.527 1337.38 497.081 1337.38 493.489C1337.38 476.703 1323.78 463.097 1307 463.097Z" fill="white"/>
<path d="M1314.24 179.535C1305.84 179.535 1297.97 181.818 1291.21 185.794C1281.87 164.509 1260.61 149.643 1235.89 149.643C1234.62 149.643 1233.37 149.687 1232.13 149.763C1216.45 121.502 1186.33 102.373 1151.73 102.373C1114.12 102.373 1081.79 124.985 1067.57 157.361C1057.3 151.313 1045.33 147.841 1032.55 147.841C994.352 147.841 963.384 178.826 963.384 217.049C963.384 225.23 964.807 233.077 967.411 240.362H1134.67H1305.69H1357.07C1358.78 235.572 1359.71 230.413 1359.71 225.035C1359.71 199.906 1339.35 179.535 1314.24 179.535Z" fill="white"/>
<path d="M265.274 401.862C260.717 401.862 256.45 403.1 252.787 405.256C247.717 393.714 236.191 385.651 222.782 385.651C222.097 385.651 221.417 385.675 220.743 385.717C212.242 370.39 195.904 360.017 177.144 360.017C156.747 360.017 139.216 372.279 131.504 389.837C125.933 386.558 119.442 384.674 112.51 384.674C91.7937 384.674 74.9998 401.478 74.9998 422.207C74.9998 426.643 75.7713 430.899 77.184 434.85H167.891H260.637H288.499C289.428 432.253 289.935 429.455 289.935 426.538C289.935 412.91 278.894 401.862 265.274 401.862Z" fill="white"/>
<path d="M942.804 698.908L1120.53 613.939L1126.71 630.16L1207.37 593.852L1214.53 611.602L1179.42 632.839L1184.93 646.38H1210.71L1218.34 657.166L1161.55 709.955L942.804 698.908Z" fill="white"/>
<path d="M1126.71 630.16L1034.24 673.496L1123.45 621.609L1126.71 630.16Z" fill="#DDF1FD"/>
<path d="M1211.85 604.957L1121.75 667.73L1214.53 611.602L1211.85 604.957Z" fill="#DDF1FD"/>
<path d="M1161.55 709.955L1213.52 650.354L1218.34 657.166L1161.55 709.955Z" fill="#DDF1FD"/>
<path d="M1440 698.249H0.0161133V911H1440V698.249Z" fill="url(#paint0_linear)"/>
<path d="M857.136 763.543L709.11 794.126L722.883 826.917L857.136 832.704L940.602 801.441L929.882 773.472L933.265 765.923L886.862 759.406L866.18 767.812L857.136 763.543Z" fill="white"/>
<path d="M940.602 801.441L942.804 777.724L933.265 765.923L929.882 773.472L940.602 801.441L841.187 823.623L719.293 818.369L709.11 794.126V809.09L719.293 834.349L837.922 839.067L940.602 816.029V801.441Z" fill="#DDF1FD"/>
<path d="M184.426 836.199L328.144 823.039L403.518 850.501L401.04 865.219L299.867 890.449L184.426 856.744V836.199Z" fill="#DDF1FD"/>
<path d="M196.215 807.073L328.144 802.495L400.814 832.024L403.518 850.501L299.867 869.904L184.426 836.199L196.215 807.073Z" fill="white"/>
<path d="M109.151 703.38L44.9714 697.503L11.3118 709.767L12.4183 716.34L57.5989 727.606L109.151 712.555V703.38Z" fill="#DDF1FD"/>
<path d="M103.886 690.373L44.9714 688.329L12.5193 701.516L11.3118 709.767L57.5989 718.432L109.151 703.38L103.886 690.373Z" fill="white"/>
<path d="M966.71 720.525H526.762" stroke="white" stroke-width="4" stroke-miterlimit="10" stroke-linecap="round" stroke-linejoin="round"/>
<path d="M479.917 720.525H436.434" stroke="white" stroke-width="4" stroke-miterlimit="10" stroke-linecap="round" stroke-linejoin="round"/>
<path d="M383.525 720.525H366.408" stroke="white" stroke-width="4" stroke-miterlimit="10" stroke-linecap="round" stroke-linejoin="round"/>
<path d="M297.942 720.525H283.528" stroke="white" stroke-width="4" stroke-miterlimit="10" stroke-linecap="round" stroke-linejoin="round"/>
<path d="M730.776 770.124H366.408" stroke="white" stroke-width="4" stroke-miterlimit="10" stroke-linecap="round" stroke-linejoin="round"/>
<path d="M333.02 770.124H263.447" stroke="white" stroke-width="4" stroke-miterlimit="10" stroke-linecap="round" stroke-linejoin="round"/>
<path d="M215.063 770.124H130.474" stroke="white" stroke-width="4" stroke-miterlimit="10" stroke-linecap="round" stroke-linejoin="round"/>
<path d="M62.0079 770.124H47.5942" stroke="white" stroke-width="4" stroke-miterlimit="10" stroke-linecap="round" stroke-linejoin="round"/>
<path d="M858.442 744.851H603.11" stroke="white" stroke-width="4" stroke-miterlimit="10" stroke-linecap="round" stroke-linejoin="round"/>
<path d="M560.995 744.851H328.166" stroke="white" stroke-width="4" stroke-miterlimit="10" stroke-linecap="round" stroke-linejoin="round"/>
<path d="M300.645 744.851H215.063" stroke="white" stroke-width="4" stroke-miterlimit="10" stroke-linecap="round" stroke-linejoin="round"/>
<path d="M189.674 744.851H175.26" stroke="white" stroke-width="4" stroke-miterlimit="10" stroke-linecap="round" stroke-linejoin="round"/>
<path d="M761.261 697.165L610.165 573.769L605.097 588.696L644.714 645.418L615.232 635.467L609.243 650.892L623.984 675.169L583.446 652.882L573.772 661.377L601.412 697.165H761.261Z" fill="white"/>
<path d="M605.097 588.696L673.328 686.825L606.528 584.481L605.097 588.696Z" fill="#DDF1FD"/>
<path d="M609.244 650.892L623.985 675.169L649.607 683.483L621.317 662.737L610.54 647.551L609.244 650.892Z" fill="#DDF1FD"/>
<path d="M573.772 661.377L601.412 697.165H649.606L605.097 691.653L577.096 658.458L573.772 661.377Z" fill="#DDF1FD"/>
<path d="M783.937 689.491C808.563 685.399 833.19 689.491 856.869 696.653C856.869 690.514 851.186 683.353 852.133 681.307C857.816 672.099 869.182 682.33 878.654 680.284C877.707 676.192 873.918 669.03 875.812 668.007C897.877 658.013 921.011 669.972 942.804 682.612C924.799 670.275 904.775 661.369 883.918 656.573C878.704 655.374 873.342 654.423 868.059 655.186C865.8 655.512 863.237 656.478 862.533 658.819C861.298 662.931 866.762 666 867.208 670.296C860.455 669.411 853.533 670.058 847.021 672.185C844.091 673.142 840.668 675.409 841.193 678.667C841.902 683.072 849.353 684.659 848.079 688.914C826.624 685.361 804.839 684.133 783.158 685.254C778.558 685.491 773.092 686.448 771.181 690.972C772.838 691.79 774.825 692.744 776.949 693.693C778.82 691.707 781.259 690.214 783.937 689.491Z" fill="white"/>
<path d="M875.812 668.007C873.918 669.03 877.707 676.192 878.654 680.284C869.182 682.33 857.816 672.099 852.133 681.307C851.186 683.353 856.869 690.515 856.869 696.653C833.19 689.491 808.563 685.399 783.937 689.491C781.259 690.214 778.82 691.707 776.95 693.692C781.593 695.766 786.893 697.819 790.838 698.383H962.687C956.411 692.63 949.753 687.374 942.803 682.612C921.011 669.972 897.877 658.013 875.812 668.007Z" fill="#81D9DD"/>
<path d="M1284.41 688.469C1288.19 685.399 1291.98 682.33 1296.72 682.33C1290.09 677.215 1279.67 682.33 1274.93 675.169C1272.09 671.077 1280.62 670.054 1281.56 664.939C1249.62 666.754 1219.92 677.431 1189.14 685.532C1186.98 686.614 1184.84 687.711 1182.7 688.825C1177.64 691.468 1172.58 694.221 1168.14 697.947L1308 704.061C1310.27 702.757 1312.52 701.41 1314.77 700.069C1315.96 697.907 1317.17 695.746 1318.5 693.584C1307.14 688.469 1294.83 693.584 1284.41 688.469Z" fill="#81D9DD"/>
<path d="M1312.42 687.677C1307.22 687.482 1302 688.093 1296.82 687.521C1299.58 685.311 1302.35 683.103 1305.11 680.894C1305.83 680.318 1306.62 679.583 1306.58 678.617C1306.53 677.199 1304.85 676.677 1303.55 676.543C1297.93 675.966 1292.32 675.389 1286.71 674.813C1288.47 671.543 1290.8 668.638 1293.55 666.299C1289.76 662.088 1283.81 661.335 1278.38 661.195C1247.42 660.398 1217.32 671.409 1189.14 685.532C1219.92 677.431 1249.62 666.754 1281.56 664.938C1280.62 670.053 1272.09 671.076 1274.93 675.168C1279.67 682.33 1290.09 677.214 1296.72 682.33C1291.98 682.33 1288.19 685.399 1284.41 688.468C1294.82 693.583 1307.14 688.468 1318.5 693.583C1317.17 695.745 1315.96 697.907 1314.77 700.069C1318.91 697.606 1323.02 695.105 1327.09 692.52C1323.04 688.996 1317.62 687.873 1312.42 687.677Z" fill="white"/>
<path d="M602.814 300.824L420.635 489.894L423.396 588.507L643.619 444.665L664.811 289.381L602.814 300.824Z" fill="#D6EEFD"/>
<path d="M559.879 258.662V300.824H602.815C621.156 300.824 636.025 316.883 636.025 336.694V556.682H829.661V336.694C829.661 316.883 844.53 300.824 862.871 300.824H908.179V258.662C908.179 258.662 559.879 258.662 559.879 258.662Z" fill="white"/>
<path d="M687.533 326.274H654.486V344.878H687.533V326.274Z" fill="#073C4E"/>
<path d="M731.325 326.274H698.278V344.878H731.325V326.274Z" fill="#073C4E"/>
<path d="M775.118 326.274H742.07V344.878H775.118V326.274Z" fill="#073C4E"/>
<path d="M818.91 326.274H785.862V344.878H818.91V326.274Z" fill="#073C4E"/>
<path d="M687.533 363.817H654.486V382.421H687.533V363.817Z" fill="#073C4E"/>
<path d="M731.325 363.817H698.278V382.421H731.325V363.817Z" fill="#073C4E"/>
<path d="M775.118 363.817H742.07V382.421H775.118V363.817Z" fill="#073C4E"/>
<path d="M818.91 363.817H785.862V382.421H818.91V363.817Z" fill="#073C4E"/>
<path d="M918.76 258.662H543.891V300.824H918.76V258.662Z" fill="#D6EEFD"/>
<path d="M918.76 258.662H623.372V300.824H918.76V258.662Z" fill="white"/>
<path d="M829.661 192.257H628.981V214.781H829.661V192.257Z" fill="white"/>
<path d="M829.661 242.202H628.981V258.662H829.661V242.202Z" fill="white"/>
<path d="M818.479 214.781H639.258V242.202H818.479V214.781Z" fill="#073C4E"/>
<path d="M682.383 214.781H647.239V242.202H682.383V214.781Z" fill="#C8ECE8"/>
<path d="M725.191 214.781H690.046V242.202H725.191V214.781Z" fill="#C8ECE8"/>
<path d="M767.998 214.781H732.854V242.202H767.998V214.781Z" fill="#C8ECE8"/>
<path d="M810.806 214.781H775.661V242.202H810.806V214.781Z" fill="#C8ECE8"/>
<path d="M687.344 68H678.597V182.558H687.344V68Z" fill="#073C4E"/>
<path d="M711.992 108.154H703.245V182.558H711.992V108.154Z" fill="#073C4E"/>
<path d="M776.745 137.285H767.998V182.557H776.745V137.285Z" fill="#073C4E"/>
<path d="M738.37 182.558C746.824 182.558 753.678 175.155 753.678 166.024C753.678 156.892 746.824 149.489 738.37 149.489C729.916 149.489 723.062 156.892 723.062 166.024C723.062 175.155 729.916 182.558 738.37 182.558Z" fill="#073C4E"/>
<path d="M987.089 373.279C987.905 339.567 988.579 305.866 990.006 271.962C990.256 268.993 990.506 265.923 990.825 262.827C971.017 270.026 643.104 391.01 387 602.475V652.104C466.714 596.037 550.094 545.688 636.999 499.421C749.12 439.946 866.459 400.904 987.089 373.279Z" fill="#073C4E"/>
<path d="M987.765 344.788L988.066 332.495C968.259 339.694 643.104 415.054 387 626.52V636.536C595.938 466.26 867.134 372.413 987.765 344.788Z" fill="#B71C22"/>
<path d="M983.932 463.699C985.523 433.448 986.362 403.359 987.09 373.279C866.459 400.904 749.12 439.946 637 499.422C550.094 545.688 466.715 596.038 387.001 652.104V696.803H991.773C991.773 696.803 992.034 694.933 992.583 691.452C990.577 680.735 988.964 669.956 987.982 659.081C983.256 593.467 980.556 529.312 983.932 463.699Z" fill="#B71C22"/>
<path d="M987.764 344.878C987.539 354.294 987.321 363.706 987.093 373.119C1019.25 388.005 1045.14 412.89 1066.57 442.273C1070.27 434.444 1074.13 426.698 1078.16 419.074C1054.85 386.376 1022.94 361.436 987.764 344.878Z" fill="#062431"/>
<path d="M1080.89 414.026C1082.63 410.898 1087.13 402.745 1088.93 399.671C1088.93 399.671 1064.91 323.388 991.773 262.485C991.773 262.485 991.45 262.601 990.825 262.828C990.507 265.924 990.256 268.993 990.006 271.963C989.14 292.551 988.556 313.061 988.045 333.547C1026.09 348.182 1054.47 380.79 1080.89 414.026Z" fill="#062431"/>
<path d="M988.066 332.495C987.971 336.273 987.854 341.102 987.764 344.878C1022.94 361.435 1052.11 391.423 1075.42 424.121C1077.21 420.73 1079.04 417.365 1080.89 414.026C1056.48 378.762 1027.13 347.539 988.066 332.495Z" fill="#B71C22"/>
<path d="M987.094 373.119C986.365 403.252 985.526 433.394 983.932 463.699C980.557 529.312 983.257 593.468 987.981 659.081C988.964 669.956 990.577 680.734 992.582 691.452C996.725 665.155 1017.32 546.587 1066.57 442.273C1045.14 412.889 1019.25 388.004 987.094 373.119Z" fill="#6D1415"/>
<path d="M420.635 665.989C422.16 665.989 423.396 664.654 423.396 663.008C423.396 661.361 422.16 660.026 420.635 660.026C419.111 660.026 417.875 661.361 417.875 663.008C417.875 664.654 419.111 665.989 420.635 665.989Z" fill="white" stroke="#062431" stroke-width="2" stroke-miterlimit="10"/>
<path d="M433.524 657.235C435.446 657.235 437.004 655.552 437.004 653.476C437.004 651.4 435.446 649.717 433.524 649.717C431.602 649.717 430.044 651.4 430.044 653.476C430.044 655.552 431.602 657.235 433.524 657.235Z" fill="white" stroke="#062431" stroke-width="2.1818" stroke-miterlimit="10"/>
<path d="M454.932 645.144C457.251 645.144 459.131 643.113 459.131 640.607C459.131 638.102 457.251 636.071 454.932 636.071C452.612 636.071 450.732 638.102 450.732 640.607C450.732 643.113 452.612 645.144 454.932 645.144Z" fill="white" stroke="#062431" stroke-width="2.3636" stroke-miterlimit="10"/>
<path d="M483.863 630.414C486.58 630.414 488.782 628.035 488.782 625.101C488.782 622.166 486.58 619.787 483.863 619.787C481.146 619.787 478.943 622.166 478.943 625.101C478.943 628.035 481.146 630.414 483.863 630.414Z" fill="white" stroke="#062431" stroke-width="2.5455" stroke-miterlimit="10"/>
<path d="M519.32 613.746C522.435 613.746 524.96 611.018 524.96 607.654C524.96 604.29 522.435 601.563 519.32 601.563C516.206 601.563 513.681 604.29 513.681 607.654C513.681 611.018 516.206 613.746 519.32 613.746Z" fill="white" stroke="#062431" stroke-width="2.7273" stroke-miterlimit="10"/>
<path d="M560.309 595.835C563.821 595.835 566.668 592.76 566.668 588.967C566.668 585.174 563.821 582.098 560.309 582.098C556.797 582.098 553.95 585.174 553.95 588.967C553.95 592.76 556.797 595.835 560.309 595.835Z" fill="white" stroke="#062431" stroke-width="2.9091" stroke-miterlimit="10"/>
<path d="M605.832 577.383C609.741 577.383 612.911 573.959 612.911 569.737C612.911 565.514 609.741 562.091 605.832 562.091C601.922 562.091 598.753 565.514 598.753 569.737C598.753 573.959 601.922 577.383 605.832 577.383Z" fill="white" stroke="#062431" stroke-width="3.0909" stroke-miterlimit="10"/>
<path d="M654.894 559.086C659.201 559.086 662.693 555.315 662.693 550.662C662.693 546.01 659.201 542.239 654.894 542.239C650.587 542.239 647.095 546.01 647.095 550.662C647.095 555.315 650.587 559.086 654.894 559.086Z" fill="white" stroke="#062431" stroke-width="3.2727" stroke-miterlimit="10"/>
<path d="M706.498 541.643C711.203 541.643 715.016 537.524 715.016 532.443C715.016 527.361 711.203 523.242 706.498 523.242C701.794 523.242 697.98 527.361 697.98 532.443C697.98 537.524 701.794 541.643 706.498 541.643Z" fill="white" stroke="#062431" stroke-width="3.4545" stroke-miterlimit="10"/>
<path d="M759.649 525.754C764.751 525.754 768.887 521.286 768.887 515.776C768.887 510.265 764.751 505.797 759.649 505.797C754.547 505.797 750.411 510.265 750.411 515.776C750.411 521.286 754.547 525.754 759.649 525.754Z" fill="white" stroke="#062431" stroke-width="3.6364" stroke-miterlimit="10"/>
<path d="M813.349 512.116C818.849 512.116 823.307 507.3 823.307 501.36C823.307 495.42 818.849 490.605 813.349 490.605C807.85 490.605 803.391 495.42 803.391 501.36C803.391 507.3 807.85 512.116 813.349 512.116Z" fill="white" stroke="#062431" stroke-width="3.8182" stroke-miterlimit="10"/>
<path d="M866.604 501.427C872.502 501.427 877.282 496.264 877.282 489.894C877.282 483.525 872.502 478.361 866.604 478.361C860.707 478.361 855.927 483.525 855.927 489.894C855.927 496.264 860.707 501.427 866.604 501.427Z" fill="white" stroke="#062431" stroke-width="4" stroke-miterlimit="10"/>
<path d="M429.39 532.285L610.025 393.576V369.661L429.39 524.216V532.285Z" fill="#073C4E"/>
<path d="M429.39 502.496V511.879L610.025 351.807V329.425L429.39 502.496Z" fill="#073C4E"/>
<path d="M437.165 488.218H434.609V544.14H437.165V488.218Z" fill="#D6EEFD"/>
<path d="M450.942 530.089L445.533 532.285V476.364L450.942 474.168V530.089Z" fill="#D6EEFD"/>
<path d="M469.152 512.476L462.306 517.277V461.356L469.152 456.555V512.476Z" fill="#D6EEFD"/>
<path d="M496.468 485.427L485.549 494.761V438.839L496.468 429.505V485.427Z" fill="#D6EEFD"/>
<path d="M530.627 457.993L519.708 467.327V411.406L530.627 402.072V457.993Z" fill="#D6EEFD"/>
<path d="M576.873 424.146L562.436 436.487V362.551L576.873 350.21V424.146Z" fill="#D6EEFD"/>
</g>
<defs>
<linearGradient id="paint0_linear" x1="720.008" y1="700.012" x2="720.008" y2="913.053" gradientUnits="userSpaceOnUse">
<stop stop-color="#86FAFF"/>
<stop offset="1" stop-color="#202770"/>
</linearGradient>
<clipPath id="clip0">
<rect width="1440" height="910" fill="white"/>
</clipPath>
</defs>
</svg>
