<svg width="1440" height="910" viewBox="0 0 1440 910" fill="none" xmlns="http://www.w3.org/2000/svg">
<path d="M490.025 119.667C478.093 119.667 466.92 122.909 457.33 128.554C444.054 98.3301 413.876 77.2206 378.764 77.2206C332.775 77.2206 295.241 113.433 293.083 158.915C289.154 157.817 285.017 157.217 280.737 157.217C255.439 157.217 234.93 177.737 234.93 203.05C234.93 204.055 234.974 205.05 235.037 206.039H550.837C553.268 199.238 554.597 191.912 554.597 184.275C554.597 148.593 525.687 119.667 490.025 119.667Z" fill="white"/>
<path d="M1307 462.097C1301.39 462.097 1296.13 463.622 1291.62 466.278C1285.38 452.061 1271.18 442.131 1254.67 442.131C1233.03 442.131 1215.38 459.165 1214.36 480.559C1212.51 480.043 1210.57 479.761 1208.56 479.761C1196.65 479.761 1187.01 489.413 1187.01 501.32C1187.01 501.793 1187.03 502.261 1187.06 502.726H1335.61C1336.75 499.527 1337.38 496.081 1337.38 492.489C1337.38 475.703 1323.78 462.097 1307 462.097Z" fill="white"/>
<path d="M1314.24 178.535C1305.84 178.535 1297.97 180.818 1291.21 184.794C1281.87 163.509 1260.61 148.643 1235.89 148.643C1234.62 148.643 1233.37 148.687 1232.13 148.763C1216.45 120.502 1186.33 101.373 1151.73 101.373C1114.12 101.373 1081.79 123.985 1067.57 156.361C1057.3 150.313 1045.33 146.841 1032.55 146.841C994.352 146.841 963.384 177.826 963.384 216.049C963.384 224.23 964.807 232.077 967.411 239.362H1134.67H1305.69H1357.07C1358.78 234.572 1359.71 229.413 1359.71 224.035C1359.71 198.906 1339.35 178.535 1314.24 178.535Z" fill="white"/>
<path d="M265.274 400.862C260.717 400.862 256.45 402.1 252.787 404.256C247.717 392.714 236.191 384.651 222.782 384.651C222.097 384.651 221.417 384.675 220.743 384.717C212.242 369.39 195.904 359.017 177.144 359.017C156.747 359.017 139.216 371.279 131.504 388.837C125.933 385.558 119.442 383.674 112.51 383.674C91.7937 383.674 74.9998 400.478 74.9998 421.207C74.9998 425.643 75.7713 429.899 77.184 433.85H167.891H260.637H288.499C289.428 431.253 289.935 428.455 289.935 425.538C289.935 411.91 278.894 400.862 265.274 400.862Z" fill="white"/>
<path d="M1440 697.249H0.0161133V910H1440V697.249Z" fill="url(#paint0_linear)"/>
<path d="M857.136 762.543L709.11 793.126L722.883 825.917L857.136 831.704L940.602 800.441L929.882 772.472L933.265 764.923L886.862 758.406L866.18 766.812L857.136 762.543Z" fill="white"/>
<path d="M940.602 800.441L942.804 776.724L933.265 764.923L929.882 772.472L940.602 800.441L841.187 822.623L719.293 817.369L709.11 793.126V808.09L719.293 833.349L837.922 838.067L940.602 815.029V800.441Z" fill="#DDF1FD"/>
<path d="M184.426 835.199L328.144 822.039L403.518 849.501L401.04 864.219L299.867 889.449L184.426 855.744V835.199Z" fill="#DDF1FD"/>
<path d="M196.215 806.073L328.144 801.495L400.814 831.024L403.518 849.501L299.867 868.904L184.426 835.199L196.215 806.073Z" fill="white"/>
<path d="M109.151 702.38L44.9714 696.503L11.3118 708.767L12.4183 715.34L57.5989 726.606L109.151 711.555V702.38Z" fill="#DDF1FD"/>
<path d="M103.886 689.373L44.9714 687.329L12.5193 700.516L11.3118 708.767L57.5989 717.432L109.151 702.38L103.886 689.373Z" fill="white"/>
<path d="M966.71 719.525H526.762" stroke="white" stroke-width="4" stroke-miterlimit="10" stroke-linecap="round" stroke-linejoin="round"/>
<path d="M479.917 719.525H436.434" stroke="white" stroke-width="4" stroke-miterlimit="10" stroke-linecap="round" stroke-linejoin="round"/>
<path d="M383.525 719.525H366.408" stroke="white" stroke-width="4" stroke-miterlimit="10" stroke-linecap="round" stroke-linejoin="round"/>
<path d="M297.942 719.525H283.528" stroke="white" stroke-width="4" stroke-miterlimit="10" stroke-linecap="round" stroke-linejoin="round"/>
<path d="M730.776 769.124H366.408" stroke="white" stroke-width="4" stroke-miterlimit="10" stroke-linecap="round" stroke-linejoin="round"/>
<path d="M333.02 769.124H263.447" stroke="white" stroke-width="4" stroke-miterlimit="10" stroke-linecap="round" stroke-linejoin="round"/>
<path d="M215.063 769.124H130.474" stroke="white" stroke-width="4" stroke-miterlimit="10" stroke-linecap="round" stroke-linejoin="round"/>
<path d="M62.0079 769.124H47.5942" stroke="white" stroke-width="4" stroke-miterlimit="10" stroke-linecap="round" stroke-linejoin="round"/>
<path d="M858.442 743.851H603.11" stroke="white" stroke-width="4" stroke-miterlimit="10" stroke-linecap="round" stroke-linejoin="round"/>
<path d="M560.995 743.851H328.166" stroke="white" stroke-width="4" stroke-miterlimit="10" stroke-linecap="round" stroke-linejoin="round"/>
<path d="M300.645 743.851H215.063" stroke="white" stroke-width="4" stroke-miterlimit="10" stroke-linecap="round" stroke-linejoin="round"/>
<path d="M189.674 743.851H175.26" stroke="white" stroke-width="4" stroke-miterlimit="10" stroke-linecap="round" stroke-linejoin="round"/>
<defs>
<linearGradient id="paint0_linear" x1="720.008" y1="699.012" x2="720.008" y2="912.053" gradientUnits="userSpaceOnUse">
<stop stop-color="#86FAFF"/>
<stop offset="1" stop-color="#202770"/>
</linearGradient>
</defs>
</svg>
