<svg width="702" height="629" viewBox="0 0 702 629" fill="none" xmlns="http://www.w3.org/2000/svg">
<path d="M215.814 232.824L33.6353 421.894L36.3955 520.507L256.619 376.665L277.811 221.381L215.814 232.824Z" fill="#D6EEFD"/>
<path d="M172.879 190.662V232.824H215.815C234.156 232.824 249.025 248.883 249.025 268.694V488.682H442.661V268.694C442.661 248.883 457.53 232.824 475.871 232.824H521.179V190.662C521.179 190.662 172.879 190.662 172.879 190.662Z" fill="white"/>
<path d="M300.533 258.274H267.486V276.878H300.533V258.274Z" fill="#073C4E"/>
<path d="M344.325 258.274H311.278V276.878H344.325V258.274Z" fill="#073C4E"/>
<path d="M388.118 258.274H355.07V276.878H388.118V258.274Z" fill="#073C4E"/>
<path d="M431.91 258.274H398.862V276.878H431.91V258.274Z" fill="#073C4E"/>
<path d="M300.533 295.817H267.486V314.421H300.533V295.817Z" fill="#073C4E"/>
<path d="M344.325 295.817H311.278V314.421H344.325V295.817Z" fill="#073C4E"/>
<path d="M388.118 295.817H355.07V314.421H388.118V295.817Z" fill="#073C4E"/>
<path d="M431.91 295.817H398.862V314.421H431.91V295.817Z" fill="#073C4E"/>
<path d="M531.76 190.662H156.891V232.824H531.76V190.662Z" fill="#D6EEFD"/>
<path d="M531.76 190.662H236.372V232.824H531.76V190.662Z" fill="white"/>
<path d="M442.661 124.257H241.981V146.781H442.661V124.257Z" fill="white"/>
<path d="M442.661 174.202H241.981V190.662H442.661V174.202Z" fill="white"/>
<path d="M431.479 146.781H252.258V174.202H431.479V146.781Z" fill="#073C4E"/>
<path d="M295.383 146.781H260.239V174.202H295.383V146.781Z" fill="#C8ECE8"/>
<path d="M338.191 146.781H303.046V174.202H338.191V146.781Z" fill="#C8ECE8"/>
<path d="M380.998 146.781H345.854V174.202H380.998V146.781Z" fill="#C8ECE8"/>
<path d="M423.806 146.781H388.661V174.202H423.806V146.781Z" fill="#C8ECE8"/>
<path d="M300.344 0H291.597V114.558H300.344V0Z" fill="#073C4E"/>
<path d="M324.992 40.1542H316.245V114.558H324.992V40.1542Z" fill="#073C4E"/>
<path d="M389.745 69.2854H380.998V114.557H389.745V69.2854Z" fill="#073C4E"/>
<path d="M351.37 114.558C359.824 114.558 366.678 107.155 366.678 98.0237C366.678 88.8921 359.824 81.4895 351.37 81.4895C342.916 81.4895 336.062 88.8921 336.062 98.0237C336.062 107.155 342.916 114.558 351.37 114.558Z" fill="#073C4E"/>
<path d="M600.089 305.279C600.905 271.567 601.579 237.866 603.006 203.962C603.256 200.993 603.506 197.923 603.825 194.827C584.017 202.026 256.104 323.01 0 534.475V584.104C79.7143 528.037 163.094 477.688 249.999 431.421C362.12 371.946 479.459 332.904 600.089 305.279Z" fill="#073C4E"/>
<path d="M600.765 276.788L601.066 264.495C581.259 271.694 256.104 347.054 0.000488281 558.52V568.536C208.938 398.26 480.134 304.413 600.765 276.788Z" fill="#B71C22"/>
<path d="M596.932 395.699C598.523 365.448 599.362 335.359 600.09 305.279C479.459 332.904 362.12 371.946 250 431.422C163.094 477.688 79.7153 528.038 0.000976562 584.104V628.803H604.773C604.773 628.803 605.034 626.933 605.583 623.452C603.577 612.735 601.964 601.956 600.982 591.081C596.256 525.467 593.556 461.312 596.932 395.699Z" fill="#B71C22"/>
<path d="M600.764 276.878C600.539 286.294 600.321 295.706 600.093 305.119C632.253 320.005 658.135 344.89 679.574 374.273C683.27 366.444 687.134 358.698 691.158 351.074C667.848 318.376 635.941 293.436 600.764 276.878Z" fill="#062431"/>
<path d="M693.892 346.026C695.63 342.898 700.131 334.745 701.929 331.671C701.929 331.671 677.913 255.388 604.773 194.485C604.773 194.485 604.45 194.601 603.825 194.828C603.507 197.924 603.256 200.993 603.006 203.963C602.14 224.551 601.556 245.061 601.045 265.547C639.095 280.182 667.47 312.79 693.892 346.026Z" fill="#062431"/>
<path d="M601.066 264.495C600.971 268.273 600.854 273.102 600.764 276.878C635.941 293.435 665.114 323.423 688.424 356.121C690.214 352.73 692.037 349.365 693.892 346.026C669.478 310.762 640.127 279.539 601.066 264.495Z" fill="#B71C22"/>
<path d="M600.094 305.119C599.365 335.252 598.526 365.394 596.932 395.699C593.557 461.312 596.257 525.468 600.981 591.081C601.964 601.956 603.577 612.734 605.582 623.452C609.725 597.155 630.324 478.587 679.574 374.273C658.136 344.889 632.254 320.004 600.094 305.119Z" fill="#6D1415"/>
<path d="M33.6355 597.989C35.1599 597.989 36.3958 596.654 36.3958 595.008C36.3958 593.361 35.1599 592.026 33.6355 592.026C32.111 592.026 30.8752 593.361 30.8752 595.008C30.8752 596.654 32.111 597.989 33.6355 597.989Z" fill="white" stroke="#062431" stroke-width="2" stroke-miterlimit="10"/>
<path d="M46.5242 589.235C48.4463 589.235 50.0045 587.552 50.0045 585.476C50.0045 583.4 48.4463 581.717 46.5242 581.717C44.6021 581.717 43.0439 583.4 43.0439 585.476C43.0439 587.552 44.6021 589.235 46.5242 589.235Z" fill="white" stroke="#062431" stroke-width="2.1818" stroke-miterlimit="10"/>
<path d="M67.9317 577.144C70.2511 577.144 72.1314 575.113 72.1314 572.607C72.1314 570.102 70.2511 568.071 67.9317 568.071C65.6122 568.071 63.7319 570.102 63.7319 572.607C63.7319 575.113 65.6122 577.144 67.9317 577.144Z" fill="white" stroke="#062431" stroke-width="2.3636" stroke-miterlimit="10"/>
<path d="M96.8626 562.414C99.5797 562.414 101.782 560.035 101.782 557.101C101.782 554.166 99.5797 551.787 96.8626 551.787C94.1455 551.787 91.9429 554.166 91.9429 557.101C91.9429 560.035 94.1455 562.414 96.8626 562.414Z" fill="white" stroke="#062431" stroke-width="2.5455" stroke-miterlimit="10"/>
<path d="M132.32 545.746C135.435 545.746 137.96 543.018 137.96 539.654C137.96 536.29 135.435 533.563 132.32 533.563C129.206 533.563 126.681 536.29 126.681 539.654C126.681 543.018 129.206 545.746 132.32 545.746Z" fill="white" stroke="#062431" stroke-width="2.7273" stroke-miterlimit="10"/>
<path d="M173.309 527.835C176.821 527.835 179.668 524.76 179.668 520.967C179.668 517.174 176.821 514.098 173.309 514.098C169.797 514.098 166.95 517.174 166.95 520.967C166.95 524.76 169.797 527.835 173.309 527.835Z" fill="white" stroke="#062431" stroke-width="2.9091" stroke-miterlimit="10"/>
<path d="M218.832 509.383C222.741 509.383 225.911 505.959 225.911 501.737C225.911 497.514 222.741 494.091 218.832 494.091C214.922 494.091 211.753 497.514 211.753 501.737C211.753 505.959 214.922 509.383 218.832 509.383Z" fill="white" stroke="#062431" stroke-width="3.0909" stroke-miterlimit="10"/>
<path d="M267.894 491.086C272.201 491.086 275.693 487.315 275.693 482.662C275.693 478.01 272.201 474.239 267.894 474.239C263.587 474.239 260.095 478.01 260.095 482.662C260.095 487.315 263.587 491.086 267.894 491.086Z" fill="white" stroke="#062431" stroke-width="3.2727" stroke-miterlimit="10"/>
<path d="M319.498 473.643C324.203 473.643 328.016 469.524 328.016 464.443C328.016 459.361 324.203 455.242 319.498 455.242C314.794 455.242 310.98 459.361 310.98 464.443C310.98 469.524 314.794 473.643 319.498 473.643Z" fill="white" stroke="#062431" stroke-width="3.4545" stroke-miterlimit="10"/>
<path d="M372.649 457.754C377.751 457.754 381.887 453.286 381.887 447.776C381.887 442.265 377.751 437.797 372.649 437.797C367.547 437.797 363.411 442.265 363.411 447.776C363.411 453.286 367.547 457.754 372.649 457.754Z" fill="white" stroke="#062431" stroke-width="3.6364" stroke-miterlimit="10"/>
<path d="M426.349 444.116C431.849 444.116 436.307 439.3 436.307 433.36C436.307 427.42 431.849 422.605 426.349 422.605C420.85 422.605 416.391 427.42 416.391 433.36C416.391 439.3 420.85 444.116 426.349 444.116Z" fill="white" stroke="#062431" stroke-width="3.8182" stroke-miterlimit="10"/>
<path d="M479.604 433.427C485.502 433.427 490.282 428.264 490.282 421.894C490.282 415.525 485.502 410.361 479.604 410.361C473.707 410.361 468.927 415.525 468.927 421.894C468.927 428.264 473.707 433.427 479.604 433.427Z" fill="white" stroke="#062431" stroke-width="4" stroke-miterlimit="10"/>
<path d="M42.3901 464.285L223.025 325.576V301.661L42.3901 456.216V464.285Z" fill="#073C4E"/>
<path d="M42.3901 434.496V443.879L223.025 283.807V261.425L42.3901 434.496Z" fill="#073C4E"/>
<path d="M50.1655 420.218H47.6094V476.14H50.1655V420.218Z" fill="#D6EEFD"/>
<path d="M63.9415 462.089L58.5332 464.285V408.364L63.9415 406.168V462.089Z" fill="#D6EEFD"/>
<path d="M82.1523 444.476L75.3059 449.277V393.356L82.1523 388.555V444.476Z" fill="#D6EEFD"/>
<path d="M109.468 417.427L98.5486 426.761V370.839L109.468 361.505V417.427Z" fill="#D6EEFD"/>
<path d="M143.627 389.993L132.708 399.327V343.406L143.627 334.072V389.993Z" fill="#D6EEFD"/>
<path d="M189.873 356.146L175.436 368.487V294.551L189.873 282.21V356.146Z" fill="#D6EEFD"/>
</svg>
