<svg width="500" height="500" viewBox="0 0 500 500" fill="none" xmlns="http://www.w3.org/2000/svg">
<g clip-path="url(#clip0)">
<path opacity="0.07" d="M388.082 349.219C464.344 272.957 464.344 149.313 388.082 73.051C311.82 -3.21063 188.176 -3.21062 111.914 73.051C35.6528 149.313 35.6528 272.957 111.914 349.219C188.176 425.48 311.82 425.48 388.082 349.219Z" fill="#00A7FF"/>
<path opacity="0.07" d="M358.504 319.64C418.43 259.714 418.43 162.555 358.504 102.629C298.578 42.7033 201.419 42.7033 141.493 102.629C81.5666 162.555 81.5667 259.714 141.493 319.64C201.419 379.566 298.578 379.566 358.504 319.64Z" fill="#00A7FF"/>
<path opacity="0.07" d="M250 322.42C311.464 322.42 361.29 272.594 361.29 211.13C361.29 149.666 311.464 99.84 250 99.84C188.536 99.84 138.71 149.666 138.71 211.13C138.71 272.594 188.536 322.42 250 322.42Z" fill="#00A7FF"/>
<path d="M250 486.27C384.752 486.27 493.99 419.901 493.99 338.03C493.99 256.159 384.752 189.79 250 189.79C115.248 189.79 6.01001 256.159 6.01001 338.03C6.01001 419.901 115.248 486.27 250 486.27Z" fill="#00A7FF"/>
<path opacity="0.3" d="M250 486.27C384.752 486.27 493.99 419.901 493.99 338.03C493.99 256.159 384.752 189.79 250 189.79C115.248 189.79 6.01001 256.159 6.01001 338.03C6.01001 419.901 115.248 486.27 250 486.27Z" fill="black"/>
<g opacity="0.1">
<path opacity="0.1" d="M432.66 436.3C429.041 434.744 425.331 433.409 421.55 432.3C418.27 431.45 413.85 431.06 410.34 432.65C408.408 433.543 406.833 435.061 405.87 436.96C404.552 439.268 403.719 441.819 403.42 444.46C403.18 447.01 403.55 449.46 402.94 452.09C402.798 452.668 402.608 453.234 402.37 453.78C405.137 452.447 407.873 451.05 410.58 449.59C410.98 448.07 411.4 446.59 411.85 445.02C412.171 443.762 412.683 442.561 413.37 441.46C414.101 440.314 415.248 439.496 416.57 439.18C417.221 439.126 417.877 439.215 418.49 439.44C420.36 439.96 422.96 440.37 425.61 440.89C428.03 439.397 430.38 437.867 432.66 436.3Z" fill="#00A7FF"/>
<path opacity="0.1" d="M35.92 292C44.45 289.85 54.1 286.74 57.35 281.73C60.87 276.36 55.18 271.89 51.68 267.48C48.36 263.31 47.05 258.15 49.94 253.11C46.2333 256.37 42.7633 259.667 39.53 263C39.8403 264.56 40.4081 266.057 41.21 267.43C42.27 269.22 43.71 270.72 44.66 272.6C45.2098 273.609 45.521 274.73 45.5695 275.877C45.6181 277.025 45.4027 278.169 44.94 279.22C43.29 282.82 38.94 284.87 35.23 285.69C30.94 286.64 26.76 286.69 22.47 287.53C21.73 287.68 20.99 287.87 20.24 288.08C17.9023 292.061 15.8181 296.186 14 300.43C19.06 296.29 27.94 294.05 35.92 292Z" fill="#00A7FF"/>
<path opacity="0.1" d="M164.16 476.83C168.053 477.723 172 478.547 176 479.3C172.747 477.985 169.309 477.186 165.81 476.93C165.23 476.88 164.69 476.86 164.16 476.83Z" fill="#00A7FF"/>
<path opacity="0.1" d="M479.33 388.7C476.96 389.26 474.53 389.7 472.15 390.07C464.64 391.2 457.7 389.38 451.06 387.82C444.96 386.38 438.96 384.71 432.65 383.72C430.29 383.34 427.97 383.26 425.98 385.94C424.46 387.99 424.77 390.45 422.6 392.27C419.77 394.63 413.82 394.98 410.54 393.67C407.26 392.36 405.92 389.99 404.41 387.8C398.05 378.63 386.83 371.1 372.27 366.23C369.7 365.37 366.91 364.52 365.73 362.94C364.55 361.36 365.17 359.15 365.91 357.15L369.64 346.75C369.906 345.772 370.486 344.908 371.29 344.29C372.85 343.17 375.43 342.82 377.65 342.73C386.01 342.39 393.74 344.34 402.2 342.73C409.02 341.48 414.79 338.18 420.7 335.45C427.198 332.486 433.953 330.12 440.88 328.38C450.06 326.08 460.3 324.81 467.88 326.86C475.46 328.91 478.56 335.25 472.31 340.01C470.31 341.55 467.56 342.78 465.75 344.4C461.82 347.87 463.52 351.89 466.82 354.62C470.73 357.88 476.47 360.14 481.82 362.56C484.447 363.713 486.99 365.05 489.43 366.56C490.01 364.76 490.52 362.94 490.99 361.12C489.049 360.314 487.17 359.365 485.37 358.28C483.31 357.05 480.85 356.58 478.86 355.18C476.43 353.47 474.99 351.12 475.97 348.59C476.95 346.06 480.03 343.76 482.07 341.33C486.69 335.77 485.19 329.47 478.45 326.33C475.05 324.75 470.13 323.39 470.87 320.52C471.61 317.65 477.09 315.81 481.55 314.13C484.345 313.085 487.077 311.876 489.73 310.51C488.897 307.81 487.94 305.123 486.86 302.45C483.1 307.19 476.35 310.76 471.25 312.77C462.25 316.31 451.69 317.89 443.39 322.02C439.07 324.15 434.39 327.21 429.58 326.82C426.31 326.55 424.69 324.65 424.42 322.73C424.15 320.81 424.78 318.73 424.42 316.82C423.78 313.69 420.34 311.31 416.49 309.39C405.49 303.92 390.2 300.81 383.38 293.25C382.16 291.91 381.28 290.25 382.63 288.61C385.47 285.17 394.15 285.37 399.28 282.76C404.58 280.06 403.87 275.76 402.57 272.43L398.57 262.43C397.62 260.03 396.65 257.61 397.16 254.98C397.67 252.35 399.84 249.47 403.83 247.66C409.54 245.08 416.74 245.48 422.35 246.59C426.437 247.271 430.4 248.555 434.11 250.4C449.85 259.07 439.87 278.13 455.11 287.09C458.973 289.284 463.417 290.237 467.84 289.82C471.74 289.47 475.69 288.15 479.55 287.73C477.89 284.937 476.093 282.17 474.16 279.43C471.298 279.629 468.425 279.255 465.71 278.33C457.71 274.97 457.48 264.01 453.51 256.5C453.42 256.33 453.32 256.17 453.22 256C448.717 251.896 444.007 248.024 439.11 244.4C438.35 244.06 437.58 243.727 436.8 243.4C429.8 240.75 422.23 239.29 415.04 237.02C414.04 236.69 413.04 236.31 412.7 235.38C412.23 234.11 413.1 231.22 414.3 228.45C396.793 218.874 378.329 211.165 359.21 205.45C355.47 205.65 351.7 205.98 347.95 206.26C347.428 206.342 346.894 206.272 346.41 206.06C345.65 205.57 345.86 204.34 346.03 203.32C346.13 202.81 346.2 202.32 346.25 201.8C343.93 201.19 341.6 200.62 339.25 200.06C339.293 201.185 339.172 202.31 338.89 203.4C338.447 205.14 337.597 206.749 336.41 208.095C335.222 209.441 333.731 210.484 332.06 211.14C330.06 212.04 327.62 212.55 325.69 213.51C324.062 214.331 322.681 215.57 321.69 217.1C318.91 221.42 320.29 226 325.19 228.56C327.79 229.9 331.19 230.7 334.07 231.86C336.461 232.77 338.637 234.166 340.46 235.96C342.46 238.03 343.12 241.16 339.46 243.21C337.579 244.122 335.574 244.752 333.51 245.08C323.97 247.08 312.6 248.88 306.65 245.47C302.28 242.96 302.65 238.47 300.12 235.15C298.62 233.15 296.12 231.66 293.45 230.29C283.87 225.39 271.31 222.35 257.45 221.56C252.6 221.29 247 221.07 244.91 218.73C243.68 217.34 244.02 215.52 244.4 213.79C245.51 208.46 247.91 202.67 253.04 198.87C255.42 197.1 263.88 193.09 262.35 190.01C257.083 189.85 251.81 189.793 246.53 189.84C247.668 190.064 248.766 190.455 249.79 191C250.49 191.41 251.03 191.93 251.02 192.56C251.02 194.25 247.47 195.51 244.94 196.74C242.51 197.791 240.469 199.574 239.1 201.84C238.719 202.847 238.254 203.821 237.71 204.75C236.783 205.944 235.427 206.73 233.93 206.94C231.58 207.3 230.09 206.17 228.43 205.48C222.34 202.85 211.56 205.7 204.17 204.2C201.899 203.655 199.7 202.843 197.62 201.78C192.62 199.54 186.95 197.73 181.54 195.78C178.067 196.4 174.613 197.067 171.18 197.78C176.74 198.963 182.079 201.015 187 203.86C192.51 206.94 198.16 210.53 206.68 210.57C212.49 210.57 218.83 208.93 224.5 209.27C233.32 209.82 237.24 216.22 231.8 221.27C229.68 223.27 226.58 224.86 223.8 226.57C218.22 229.96 213.56 233.96 211.7 238.16C209.84 242.36 211.04 246.71 215.91 249.08C218.69 250.42 225.91 251.17 223.54 253.41C219.81 256.96 210.8 253.89 204.91 253.11C200.175 252.389 195.36 252.369 190.62 253.05C184.06 254.05 177.15 256 171.01 255.14C166.56 254.53 160.74 252.89 159.56 248.35C158.56 244.68 161.13 240.35 159.45 236.92C157.22 232.33 148.54 230.58 140.56 229.34C132.58 228.1 123.77 226.63 120.88 222.24C118.88 219.24 120.17 215.45 123.29 212.12C123.66 211.72 124.07 211.31 124.49 210.92C119.983 212.573 115.54 214.317 111.16 216.15C110.695 219.226 110.998 222.369 112.04 225.3C113.04 227.83 114.63 230.55 113.04 233.51C112.04 235.51 109.8 236.9 107.81 238.07C105.26 239.59 102.54 241.14 99.9 241.24C96.74 241.37 94.54 239.34 92.34 237.63C88.7209 234.948 84.683 232.884 80.39 231.52C79.39 232.09 78.45 232.65 77.49 233.24C71.3967 236.94 65.7 240.78 60.4 244.76C65.2704 242.487 70.6376 241.486 76 241.85C81.57 242.42 85.31 244.85 88.47 247.33C90.33 248.78 92.15 250.33 92.47 252.33C92.67 253.85 91.92 255.48 91.86 257.04C91.63 261.04 95.71 264.09 100.08 266.6C104.23 268.99 109.08 272.03 106.38 275.85C105.429 276.94 104.407 277.965 103.32 278.92C100.24 282.08 100.24 285.8 103.32 288.12C106.89 290.81 113.99 291.59 116.32 294.81C118.65 298.03 114.14 303.12 107.46 304.73C100.78 306.34 94.01 304.73 87.63 306.73C81.52 308.63 78.06 313.13 71.85 314.73C65.85 316.32 60.27 314.54 54.67 313.83C49.0536 313.216 43.3739 313.554 37.87 314.83C34.59 315.55 31.4 316.6 28.09 317.15C25.1152 317.628 22.069 317.381 19.21 316.43C16.0525 315.464 13.2964 313.495 11.36 310.82C11.0734 310.405 10.8415 309.955 10.67 309.48C9.61036 312.637 8.71911 315.848 8 319.1C11.9 320.58 15.44 322.56 15.73 325.45C16.02 328.34 13.05 331.39 11.93 334.39C10.21 338.98 12.98 343.16 16.46 346.73C19.94 350.3 24.17 353.63 25.7 357.83C26.1798 359.045 26.3067 360.372 26.0661 361.656C25.8255 362.94 25.2272 364.131 24.34 365.09C22.26 367.48 18.48 369.35 15.07 371.27C14.29 371.71 13.5 372.17 12.72 372.64C13.5667 374.793 14.4967 376.933 15.51 379.06C16.91 377.97 18.44 376.91 19.99 375.9C25.66 372.24 32.15 368.74 35.76 364.47C39.07 360.54 39.58 356.2 37.12 352.87C33.34 347.7 23.23 345.15 20.41 339.68C17.59 334.21 23.59 326.89 33.41 323.4C39.7382 321.294 46.4147 320.435 53.07 320.87C61.8939 321.208 70.5009 323.701 78.14 328.13C83.33 331.25 87.4 335.73 84.41 340.65C81.67 345.17 73.41 349.09 72.67 353.65C71.99 357.44 76.9 360.02 81.88 361.77C86.86 363.52 92.6 365.16 94.51 368.45C96.12 371.21 94.7 374.65 95.51 377.64C97.83 386.44 117.36 388.22 124.24 395.64C125.14 396.64 125.59 398.1 123.8 399C122.849 399.399 121.831 399.616 120.8 399.64C116.24 400.02 111.17 401.41 108.39 398.84C105.61 396.27 105.55 393.04 102.71 390.69C98.12 386.85 89.79 384.79 80.71 385.24C71.63 385.69 62 388.59 55.15 393C53.15 394.31 51.33 395.73 49.15 397C43.6 400.14 35.86 401.56 29.2 401.21C33.9074 407.27 39.0797 412.954 44.67 418.21C55.34 424.89 71.81 424.75 79.55 434.65C82.33 438.21 83.71 442.74 85.04 447.31C96.1612 453.49 107.707 458.874 119.59 463.42C121.23 462.49 122.36 461.92 122.36 461.92C126.68 459.87 129.21 456.56 128.58 453.86C128.357 453.329 128.304 452.742 128.43 452.18C128.718 451.648 129.126 451.189 129.62 450.84C133.24 447.99 140.17 446.6 144.62 447.84C148.35 448.84 150.14 451.27 153.84 452.29C157.74 453.29 162.91 452.61 167.69 451.87C170.915 451.264 174.189 450.956 177.47 450.95C180.62 451.06 183.56 451.89 184.47 453.53C185.38 455.17 184.12 457.3 183.98 459.21C183.75 462.74 187.61 465.45 192.6 466.86C197.59 468.27 203.6 468.56 209.6 468.86C215.6 469.16 221.6 469.46 226.53 470.86C229.412 471.609 232.097 472.974 234.4 474.86C234.786 475.1 235.104 475.434 235.324 475.832C235.545 476.229 235.66 476.676 235.66 477.13C235.377 477.95 234.888 478.683 234.24 479.26C232.84 480.8 231.433 482.353 230.02 483.92C229.46 484.54 228.88 485.16 228.27 485.77C231.21 485.92 234.16 486.05 237.1 486.15C240.52 483.55 243.8 480.77 245.16 477.83C246.52 474.89 245.48 471.6 241.39 470.35C239.11 469.66 236.17 469.65 233.79 469.03C231.41 468.41 229.6 466.84 231.12 465.24C232.12 464.24 234.12 463.56 236.04 463.1C251.09 459.4 267.7 459.95 281.35 454.23C289.15 450.94 294.81 446.02 302.65 442.76C311.84 438.89 323.65 437.86 331.89 440.19C335.214 441.118 338.335 442.661 341.09 444.74C345.03 447.65 347.9 451.32 347.2 455.5C346.5 459.68 341.48 464.4 334.31 466.22C328.26 467.74 322.25 466.99 316.37 466.75C310.644 466.517 304.908 466.755 299.22 467.46C294.31 468.06 289.15 469.07 285.02 471.13C278.14 474.55 275.82 480.13 277.28 484.41C277.396 484.75 277.529 485.084 277.68 485.41C281.2 485.17 284.68 484.88 288.2 484.54C287.845 483.006 288.073 481.395 288.84 480.02C290.68 476.57 294.95 474.88 298.59 474.11C312.27 471.26 324.88 474.71 338.52 472.4C343.34 471.57 348.44 470.05 352.74 471.01C353.612 471.216 354.461 471.514 355.27 471.9C361.13 470.187 366.903 468.33 372.59 466.33C370.34 465.961 368.157 465.264 366.11 464.26C364.118 463.307 362.349 461.945 360.917 460.264C359.486 458.582 358.423 456.619 357.8 454.5V452.74C357.98 446.74 352.94 441.57 344.6 439.03C342.277 438.477 339.998 437.755 337.78 436.87C335.84 435.87 334.59 434.32 335.53 432.63C336.203 431.696 336.996 430.855 337.89 430.13C340.67 427.39 341.48 424.19 340.06 421.67C339.14 420.07 337.6 418.1 340.06 416.61C341.779 415.732 343.757 415.504 345.63 415.97C347.02 416.387 348.31 417.085 349.42 418.02C353.005 420.639 357.302 422.107 361.74 422.23C371.28 422.52 380.74 417.32 388.29 412.64L400.29 405.19C403.73 403.07 407.88 400.7 412.34 400.61C415.04 400.53 417.2 401.33 419.71 401.66C422.919 401.921 426.145 401.897 429.35 401.59C443.16 400.92 456.25 402.8 466.28 406.87C471.151 401.205 475.517 395.125 479.33 388.7ZM332.91 223.47C332.47 218.83 340.25 213.7 348.57 211.87C356.397 210.299 364.48 210.538 372.2 212.57C380.445 214.654 388.227 218.267 395.14 223.22C399.49 226.32 403.4 229.81 404.14 234.13C404.31 234.902 404.294 235.703 404.094 236.468C403.894 237.233 403.516 237.94 402.99 238.53C401.79 239.94 399.67 241.08 397.66 242.21C392.66 245.03 387.82 248.02 384.38 251.44C380.94 254.86 378.98 258.76 380.16 262.06C381.42 265.58 385.97 268.01 388.48 271.15C390.99 274.29 390.43 279.23 384.37 281.67C382.423 282.354 380.413 282.847 378.37 283.14C372.225 284.193 365.926 283.91 359.9 282.31C358.795 281.919 357.786 281.295 356.943 280.48C356.099 279.666 355.44 278.681 355.01 277.59C353.57 273.99 354.72 269.34 355.77 264.97C356.72 260.97 357.63 256.64 356.19 253.29C354.98 250.49 351.99 249.1 350.96 246.16C350.27 244.16 350.58 241.75 350.45 239.51C349.87 229.65 333.75 232.73 332.91 223.47ZM300.75 258.8C306.32 254.48 315.43 251.96 323.8 251.25C335.31 250.3 347.01 252.93 349.14 259.01C350.99 264.25 345.48 270.5 345.65 276.09C345.89 283.3 355.34 287.98 364.21 292.09L393.21 305.33C404.21 310.33 415.88 316.18 415.89 325.15C415.9 326.363 415.651 327.564 415.159 328.673C414.668 329.782 413.945 330.773 413.04 331.58C409.69 334.8 403.45 336.83 397.52 337.85C386.62 339.73 379.95 338.18 370.19 336.76C368.19 336.47 365.74 336.18 364.68 335.89C364.13 335.73 362.23 335.5 362.23 335.5C356.16 334.42 354.31 334.16 349.88 331.96C347.02 330.52 344.6 328.63 344.48 326.21C344.36 323.79 346.35 321.37 346.48 319C346.61 316.63 344.7 314.39 342.77 312.4C340.08 309.67 337.17 306.88 332.37 305.4C327.37 303.82 320.8 303.84 314.52 303.89C308.24 303.94 301.69 303.98 296.6 302.47C291.51 300.96 288.29 297.36 290.89 293.69C292.24 291.8 294.82 290.2 296.89 288.46C302.76 283.46 303.48 277.07 298.65 273.12C297.34 272.05 295.65 271.12 294.92 269.86C293.92 268.09 294.83 265.86 296.16 263.86C297.393 261.926 298.945 260.216 300.75 258.8ZM314.16 378.37C315.46 381.27 316.7 384.71 313.04 387.6C310.906 389.069 308.539 390.167 306.04 390.85C299.528 393.403 292.386 393.885 285.59 392.23C281.52 391.1 276.4 387.83 272.53 386.6C269.79 385.71 265.92 384.96 263.08 384.16C260.24 383.36 258 381.75 258.62 379.71C259.37 377.24 263.67 375.3 266.94 373.29C275.33 368.13 277.89 360.42 272.83 355.62C271.23 354.13 269 352.9 267.69 351.28C266.38 349.66 266.22 347.45 268.53 345.69C272.53 342.69 279.65 343.32 285.47 341.98C293.59 340.14 298.53 334.52 306.33 331.98C314.33 329.37 322.83 330.64 329.9 332.25C337.47 333.99 344.85 336.08 350.2 339.45C355.55 342.82 358.67 347.62 356.85 352.86C355.03 358.1 347.51 363.54 338.49 365.08C334.58 365.76 330.72 365.7 326.82 366.08C322.92 366.46 318.61 367.29 315.82 369.22C311.91 372 312.84 375.5 314.16 378.37ZM157.23 326.26C153.651 322.779 149.354 320.124 144.64 318.48C139.89 316.69 134.37 315.48 130.07 313.34C125.77 311.2 122.66 307.97 124.24 304.25C125.6 301 130.38 298 135.71 296.25C141.121 294.631 146.742 293.826 152.39 293.86C163.22 293.72 173.29 295.51 180.95 298.96C183.95 300.29 186.61 301.96 186.78 304.39C186.92 306.11 185.72 307.95 184.89 309.74C183.22 313.42 183.54 317.6 188.46 319.2C191.87 320.31 196.62 319.94 200.6 320.46C204.58 320.98 207.93 323.39 205.36 325.76C204.29 326.551 203.164 327.263 201.99 327.89C198.18 330.43 198.53 333.74 198.37 336.69C198.12 340.88 196.26 345.27 192.92 349.44C192.661 349.856 192.356 350.242 192.01 350.59C185.69 355.5 180.88 362 171.42 364.19C165.03 365.68 158.99 363.85 155.72 361.19C151.72 357.88 150.67 353.19 152.86 348.65C154.93 344.29 159.8 340.01 160.86 335.65C161.65 332.16 159.89 329 157.23 326.26ZM212 289.81C213.79 284.65 223.45 280.02 232.35 279.38C241.25 278.74 248.83 281.55 252.27 285.72C255.12 289.18 255.45 293.42 257.07 297.26C258.937 301.412 261.909 304.971 265.66 307.55C267.986 309.28 270.63 310.537 273.44 311.25C280.69 313.02 290.15 311.41 298.92 310.35C305.036 309.475 311.225 309.234 317.39 309.63C323.23 310.18 328.51 311.8 331.12 314.63C332.93 316.63 334.12 319.94 331.37 322.25C328.62 324.56 323.58 324.85 320.21 323.72C319.526 323.582 318.826 323.542 318.13 323.6C312.471 324.006 306.885 325.115 301.5 326.9C295.04 329.16 289.63 332.5 283.28 334.9C276.93 337.3 268.63 338.66 264 336.41C257.37 333.21 263 325.64 259.35 320.98C256.8 317.66 250.08 316.39 243.58 315.8C238.328 315.285 233.041 315.231 227.78 315.64C222.59 316.11 217.31 317.17 212.23 317.26C207.15 317.35 202.29 316.4 198.9 314.58C196.6 313.35 194.9 311.43 196.28 309.37C198.28 306.37 205.1 305.15 208.72 302.54C214 298.78 210.51 294.18 212 289.81ZM199.16 359.11C202.047 351.25 204.93 343.397 207.81 335.55C208.89 332.62 210.02 329.55 213.05 326.88C217.05 323.34 224.05 320.82 230.63 320.58C237.21 320.34 242.84 322.44 244.63 325.75C245.84 327.94 245.48 330.52 245.8 332.92C246.379 336.703 248.405 340.112 251.45 342.43C253.45 344.09 255.95 346.19 253.59 348.3C251.23 350.41 246.37 350.42 242.43 350.98C236.133 351.884 230.277 354.733 225.68 359.13C221.96 362.87 220.23 366.92 218.58 370.89C217.34 373.83 216.097 376.787 214.85 379.76C214.138 381.807 212.987 383.673 211.48 385.23C207.96 388.65 200.81 390.88 194.66 390.89C188.51 390.9 182.66 389.22 180.57 386.16C180.368 385.756 180.204 385.334 180.08 384.9C179.95 382.09 181.94 380.4 184.8 377.67C186.69 375.87 189.13 374.23 191.1 372.45C195.78 368.28 197.53 363.61 199.18 359.11H199.16ZM197.7 397.24C200.1 396.02 203.32 395.38 206.06 394.5C215.13 389.5 222.06 383.11 225.53 376.6C227.45 372.98 228.36 369.33 230.39 365.7C232.905 361.334 236.763 357.897 241.39 355.9C242.215 355.503 243.095 355.23 244 355.09C245.114 355.001 246.235 355.13 247.3 355.47C253.48 357.07 260.14 359.06 261.45 363.05C262.55 366.4 259.5 370.33 255.35 373.56C251.47 376.56 246.26 379.71 246.17 383.02C246.17 385.12 248.32 386.77 251 387.88C257 390.32 265.37 390.56 272.35 392.17C279.33 393.78 285.21 397.86 281.93 402.61C277.69 408.72 262.67 410.61 256.09 416.26C253.54 418.44 252.51 421 249.75 423.12C245.22 426.59 236.98 427.92 230.89 427.05C225.771 426.304 220.974 424.104 217.07 420.71C213.63 417.88 210.8 414.71 206.49 412.36C202.85 410.36 198.15 408.87 195.49 406.36C192.83 403.85 192.86 399.7 197.72 397.24H197.7ZM222.38 245C221.209 243.588 220.596 241.797 220.654 239.964C220.713 238.131 221.441 236.383 222.7 235.05C227.22 229.68 238.48 226.47 247.84 226.41C257.2 226.35 265.11 228.67 272.66 230.98C283.76 234.39 295.66 238.45 297.79 245.98C297.964 246.468 298.034 246.987 297.996 247.503C297.958 248.02 297.813 248.523 297.57 248.98C296.704 250.14 295.637 251.136 294.42 251.92C287.55 257.09 280.65 262.81 279.66 268.63C278.91 272.94 281.53 276.78 285.02 280.07C286.64 281.62 288.52 283.42 287.12 285.46C286.12 286.94 283.62 288.06 282.12 289.46C278.74 292.7 281.12 297.02 276.01 299.46C271.63 301.58 265.78 299.95 264.51 297.32C263.24 294.69 264.69 291.55 264.89 288.64C265.18 284.01 262.03 279.81 256.35 277.29C252.58 275.62 247.35 273.87 248.92 270.75C249.49 269.925 250.136 269.155 250.85 268.45C254.16 264.72 253.07 260.38 248.34 258.35C242.24 256.59 237.8 254.35 232.59 251.91C228.49 250.05 224.6 247.88 222.38 245ZM115.31 285.27C114.14 284.55 113.09 283.67 113.31 282.55C113.68 280.55 117.63 279.05 119.46 277.15C122.55 273.93 118.74 270.9 114.96 268.89C111.43 267.04 107.72 265.22 105.43 262.74C101.93 258.96 102.12 253.74 105.95 249.1C109.78 244.46 117.17 240.31 125.39 238.32C134.39 236.16 145.24 237.13 147.24 241.86C147.649 243.258 147.765 244.725 147.58 246.17C147.44 253.06 152.26 259.97 163.31 261.43C170.57 262.43 179.03 260.86 187.08 259.89C201.4 258.099 215.899 258.312 230.16 260.52C236.95 261.65 244.16 264.18 242.81 268.62C241.9 271.62 237.09 274.4 232.03 275.83C226.97 277.26 221.61 277.59 216.41 277.91C213.06 279.27 206.41 281.98 204.51 284.6C202.99 286.7 203.7 288.79 203.84 290.83C203.918 292.121 203.576 293.403 202.866 294.484C202.156 295.565 201.116 296.388 199.9 296.83C196.981 297.988 193.746 298.073 190.77 297.07C188.29 296.19 186.77 294.72 184.88 293.44C180 289.99 172.88 287.65 164.45 287.35C153.45 286.94 141.32 289.97 130.45 289.35C124.43 289.07 119.09 287.6 115.31 285.27ZM94.85 358.88C92.34 357.63 89.36 355.5 88 352.8C86.64 350.1 87.84 346.71 91.1 343.93C95.1 340.47 102.52 337.17 101.68 333.64C101.35 332.21 99.61 331.2 97.95 330.26C93.81 327.973 89.68 325.67 85.56 323.35C83.1 321.97 80.49 320.35 80.83 318.12C81.09 316.44 83.05 314.72 85.39 313.37C92.39 309.37 103.54 308.28 109.72 311.01C113.72 312.79 115.52 315.76 118.72 318.01C122.54 320.64 128.22 322.15 133.78 323.61C139.34 325.07 145 326.55 148.89 329.16C152.78 331.77 154.53 335.78 151.58 339.64C149.45 342.38 145.19 344.77 143.68 347.58C142.17 350.39 142.89 353.58 138.68 355.2C135.89 356.26 132.76 355.78 129.75 355.91C124.06 356.13 118.55 358.59 112.9 360.06C107.25 361.53 98.65 360.8 94.85 358.88ZM146.73 439.46C141.67 442.12 135.62 441.07 129.48 441.98C126.87 442.37 124.37 442.09 121.77 442.23C119.17 442.37 116.02 443.23 115.05 444.71C114.826 445.041 114.707 445.431 114.707 445.83C114.707 446.229 114.826 446.619 115.05 446.95C115.92 448.47 117.75 449.64 118.8 451.09C119.85 452.54 119.93 454.55 117.72 456.03C115.06 457.81 110.59 457.86 107.5 457.15C98.19 455 95.21 448.61 94.07 442.57C92.93 436.53 92.61 429.93 86.24 425.69C80.71 422.01 71.58 420.78 63.8 418.64C56.02 416.5 48.87 412.54 50.5 406.97C51.35 404.17 54.34 401.41 57.85 398.97C63.7483 394.909 70.4374 392.138 77.48 390.84C84.93 389.52 92.85 390.35 96.48 393.5C98.88 395.58 99.27 398.41 100.38 400.95C101.062 402.53 102.173 403.888 103.587 404.869C105.001 405.85 106.661 406.415 108.38 406.5C114.38 407.16 121.56 403.98 127.85 404.2C134.47 404.41 137.55 408.13 139.77 411.5C142.86 416.18 145.93 420.86 149.03 425.5C150.42 427.63 151.85 429.8 151.86 432.25C151.87 434.7 150.3 437.57 146.73 439.46ZM151.17 412.37C148.87 402.86 140.91 394.54 128.78 388.98C122.56 386.14 115.2 383.98 110.59 380.22C105.98 376.46 104.96 370.47 111.33 365.98C117.9 361.33 129.33 360.44 137.33 362.14C145.33 363.84 150.96 367.43 157.76 370.14C159.991 371.131 162.409 371.632 164.85 371.61C171.92 371.4 177.03 365.06 184.25 364.04C185.03 363.92 187.25 363.81 187.92 364.91C189.06 366.91 185.48 371.46 182.65 374.1C179.82 376.74 175.76 378.97 172.59 381.5C169.42 384.03 167.15 387.29 168.93 389.61C171.7 393.25 182.53 392.69 184.74 396.5C186.83 400.07 179.95 404.57 179.16 408.7C178.07 414.22 188.16 418.11 184.31 423.63C182.24 426.63 176.31 428.84 171.11 429.07C166.649 429.346 162.212 428.243 158.4 425.91C156.108 424.516 154.273 422.482 153.12 420.06C152 417.61 151.81 414.94 151.17 412.37ZM291.11 443.44C282.86 449.99 269.23 453.96 256.57 455.14C246.7 456.06 235.83 455.82 227.57 460.01C225.74 460.91 224.14 462.01 222.19 462.81C218.45 464.32 214.03 464.47 210.04 464.38C204.04 464.24 197.54 463.43 195.45 460.38C193.91 458.13 195.19 455.27 195.82 452.59C196.45 449.91 196.02 446.93 192.28 445.89C188.54 444.85 183.61 446.16 179.08 446.89C173.375 447.871 167.545 447.871 161.84 446.89C156.99 445.97 152.58 443.76 153.43 440.52C154.17 437.7 158.89 435.08 163.76 434.01C168.475 433.111 173.303 432.979 178.06 433.62L179.36 433.27C184.95 430.83 189.17 427.19 190.67 423.53C191.38 421.8 191.53 420.03 192.73 418.33C193.56 417.278 194.604 416.415 195.794 415.8C196.984 415.184 198.292 414.83 199.63 414.76C200.907 414.665 202.182 414.963 203.285 415.614C204.388 416.265 205.265 417.237 205.8 418.4C208.19 422.71 210.65 427.12 215.8 430.27C220.95 433.42 229.59 435.02 238.05 432.94C243.34 431.65 247.8 429.13 252.65 427.15C260.559 423.97 268.977 422.242 277.5 422.05C282.5 421.96 287.5 422.49 291.16 423.98C300.3 427.75 299.35 436.9 291.11 443.44ZM392.72 401.44C390.79 404.54 386.99 407.33 383.01 409.92C380.122 411.914 376.95 413.462 373.6 414.51C369.319 415.614 364.857 415.828 360.49 415.14C356.931 414.674 353.476 413.612 350.27 412C347.72 410.66 345.55 408.93 341.99 408.46C336.08 407.64 327.99 411.46 327.69 415.21C327.47 418.45 332.09 420.68 331.69 423.93C331.34 426.77 327.3 429.47 323.52 431.81C320.86 433.47 317.79 435.26 314.28 435.59C312.931 435.779 311.557 435.659 310.262 435.24C308.966 434.821 307.782 434.113 306.8 433.17C305.43 431.62 305.04 429.74 304.24 428C302.68 424.69 299.44 421.84 294.97 419.84L294.03 419.66C289.82 416.8 281.03 418.08 273.8 418.13C272.28 418.13 270.54 417.98 270.26 417.13C270.12 416.73 270.39 416.28 270.69 415.87C274.52 410.87 287.11 408.52 289.56 403.46C290.28 402 289.98 400.51 291.16 399.11C292.92 397 297.29 395.87 301.06 395.52C304.83 395.17 308.55 395.31 312.29 394.52C317.53 393.35 321.97 390.21 322.64 387.18C323.64 382.83 317.69 379.26 320.69 374.94C322.53 372.3 327.29 370.35 331.9 369.38C336.51 368.41 341.17 368.2 345.82 367.59C348.775 367.062 351.761 366.728 354.76 366.59C360.7 366.52 365.12 368.66 368.87 370.84C375.945 374.887 382.454 379.849 388.23 385.6C392.66 390.19 396.35 395.65 392.72 401.46V401.44Z" fill="#00A7FF"/>
</g>
<path opacity="0.05" d="M422.53 233.21L422.05 232.93C421.379 235.587 420.892 238.287 420.59 241.01C419.51 251.01 420.88 261.01 420.82 271.07C420.76 281.13 419.04 291.65 412.76 299.47C404.43 309.83 388.92 314.47 384.89 327.18C382.81 333.72 384.44 340.78 384.24 347.63C383.15 384.68 336.79 383.36 319.09 408.63C312.73 417.7 309.7 429.31 301.2 436.42C292.05 444.08 278.7 444.67 268.96 451.55C261.38 456.91 255.96 466 246.96 468.07C238.96 469.9 230.72 465.33 225.04 459.38C219.36 453.43 215.37 446.07 209.89 439.94C194.68 422.94 169.89 417.14 154.23 400.56C146.28 392.16 140.48 382.22 136.01 371.97C130.9 360.23 121.75 353.79 112.13 345.73C104.03 338.95 96.8 330.86 92.5 321.21C86.95 308.74 86.64 294.69 84.7 281.21C82.76 267.73 78.47 253.43 67.59 245.21C66.289 244.217 64.9076 243.334 63.46 242.57C-17.54 300.81 -12.87 388.04 77.46 442.93C172.75 500.82 327.23 500.82 422.52 442.93C517.81 385.04 517.81 291.1 422.53 233.21Z" fill="black"/>
<path opacity="0.07" d="M422.53 442.85C492.32 400.45 510.98 338.75 478.53 286.02C476.72 287.42 474.88 288.79 473 290.09C461.05 298.33 447.2 304.98 439.36 317.19C430.58 330.86 436.23 348.33 428.24 360.98C420.47 373.27 406.08 383.93 392.98 389.67C380.5 395.15 366.46 397.55 355.48 405.67C340.82 416.45 333.82 435.81 318.19 445.12C306.19 452.28 290.74 452.35 279.19 460.29C269.92 466.68 263.75 477.79 253.02 481.18C243.24 484.26 232.59 479.83 224.41 473.65C218.29 469.01 213.41 462.22 207.25 457.87C200.25 452.87 190.41 450.18 182.56 446.73C168.34 440.46 153.27 433.47 145.12 420.24C142.24 415.57 140.37 410.31 137.26 405.79C127.26 391.31 107.78 387.93 92.3901 379.45C77.7411 371.33 66.4927 358.222 60.6901 342.51C58.0101 335.2 56.5701 327.44 53.2201 320.42C47.7501 308.95 36.7901 299.9 24.2201 298.09C21.1536 297.66 18.0407 297.68 14.9801 298.15C-7.85993 348 13.0001 403.65 77.4701 442.85C172.76 500.74 327.24 500.74 422.53 442.85Z" fill="black"/>
<path opacity="0.1" d="M152.83 454C143.24 449.48 133.7 444.54 125.83 437.48C118.54 430.97 112.83 422.77 104.83 417.04C84.6901 402.42 55.2501 406.74 35.0701 392.18C28.0701 387.12 22.7201 380.18 17.5501 373.18C16.5501 371.82 15.2001 370.3 13.5001 370.48C12.9893 370.536 12.5044 370.733 12.1001 371.05C21.9501 397.36 43.7201 422.37 77.4501 442.86C119.39 468.34 172.79 482.6 227.57 485.65C224.93 484.12 222.28 482.65 219.57 481.35C197.94 471 174.69 464.25 152.83 454ZM492 337.12C482.77 341.37 476 349.67 470.85 358.42C465.7 367.17 461.79 376.65 456.31 385.21C455.06 387.15 453.72 389.05 452.31 390.89C445.02 396.69 438.31 403.7 431.02 409.48C424.733 414.437 417.837 418.567 410.5 421.77H410.76C405.288 424.077 399.627 425.907 393.84 427.24C382.05 429.91 369.19 430.51 359.42 437.63C349.65 444.75 344.5 457.38 333.82 463C326.53 466.84 317.82 466.76 310 469.35C301 472.35 293.38 478.72 285.71 484.67C335.78 480.19 383.99 466.25 422.53 442.84C470.85 413.48 494.65 374.84 493.96 336.39C493.289 336.584 492.634 336.828 492 337.12Z" fill="black"/>
<path d="M165.6 218.06L157.81 258.73L172.12 311.46L189.46 319.66L195.82 383.94L244.91 456.37L260.07 438.81L261.83 420.58L292.32 388.65L302.26 350.02L312.22 346.28L326.21 313.86L342.17 268.2L336 221.4L165.6 218.06Z" fill="#00A7FF"/>
<path opacity="0.4" d="M165.6 218.06L157.81 258.73L172.12 311.46L189.46 319.66L195.82 383.94L244.91 456.37L260.07 438.81L261.83 420.58L292.32 388.65L302.26 350.02L312.22 346.28L326.21 313.86L342.17 268.2L336 221.4L165.6 218.06Z" fill="white"/>
<path opacity="0.3" d="M327.44 247.34L336 261.83L331.38 288.04L331.72 261.12L327.44 247.34Z" fill="#00A7FF"/>
<path opacity="0.3" d="M189.46 319.66L185.05 291.01L192.45 254.37L175.9 289.35L172.12 311.46L189.46 319.66Z" fill="#00A7FF"/>
<path opacity="0.3" d="M227.81 253.7L250.99 285.87L255.65 371.17L261.77 280.98V253.41L227.81 253.7Z" fill="#00A7FF"/>
<path opacity="0.3" d="M260.07 438.81L235.93 395.8V311.96L261.83 420.58L260.07 438.81Z" fill="#00A7FF"/>
<path opacity="0.3" d="M261.83 420.58L235.93 395.8L260.07 438.81L261.83 420.58Z" fill="#00A7FF"/>
<path opacity="0.3" d="M292.32 388.65L280.79 331.55L303.26 266.82L302.26 350.02L292.32 388.65Z" fill="#00A7FF"/>
<path opacity="0.3" d="M292.32 388.65L280.79 331.55L302.26 350.02L292.32 388.65Z" fill="#00A7FF"/>
<path opacity="0.3" d="M312.22 346.28L321.01 287.92L319.21 259.21L326.21 281.41V313.86L312.22 346.28Z" fill="#00A7FF"/>
<path opacity="0.3" d="M326.21 281.41L321.01 287.92L312.22 346.28L326.21 313.86V281.41Z" fill="#00A7FF"/>
<path opacity="0.3" d="M203.82 307.53L209.49 368.33L222.14 387.96V354.85L203.82 307.53Z" fill="#00A7FF"/>
<path opacity="0.3" d="M209.49 368.33L222.14 354.85V387.96L209.49 368.33Z" fill="#00A7FF"/>
<path opacity="0.3" d="M178.79 231.87L167.44 246.55L173.11 275.5V247.64L178.79 231.87Z" fill="#00A7FF"/>
<path opacity="0.3" d="M207.6 257.18L221.79 283.32L218.49 310.75L228.91 331.55L222.14 307.25L230.95 277.04L207.6 257.18Z" fill="#00A7FF"/>
<path opacity="0.3" d="M290.52 250.47L275.04 268.51L278.78 289.13L270.52 322.57L284.11 287.01L280.52 269.01L290.52 250.47Z" fill="#00A7FF"/>
<path opacity="0.3" d="M275.04 353.51L280.52 372.05L271.69 380.69L266.95 402.34L269.07 375.87L277.08 370.42L275.04 353.51Z" fill="#00A7FF"/>
<path opacity="0.3" d="M261.77 253.41L250.99 285.87L255.65 371.17L261.77 280.98V253.41Z" fill="#00A7FF"/>
<path opacity="0.3" d="M265.62 193C255.578 192.528 245.516 192.779 235.51 193.75C221.79 195.07 207.88 195.53 194.38 198.89C183.17 201.68 171.83 204.11 161.45 209.36C159.623 210.212 157.937 211.338 156.45 212.7C153.85 215.25 152.72 218.54 155.55 221.31C157.76 223.49 161.4 224.31 164.22 225.49C166.07 226.24 168.06 226.8 169.51 228.26C171.87 230.62 172.15 234.61 174.76 236.68C175.926 237.517 177.278 238.056 178.7 238.25C183.9 239.25 189.26 238.34 194.54 238.59C201.586 238.944 208.382 241.315 214.12 245.42C217.92 248.15 221.12 252.42 226.23 252.42C228.74 252.42 231.05 251.13 233.51 250.63C237.14 249.9 240.89 250.86 244.37 252.11C247.85 253.36 251.28 254.9 254.95 255.38C259.481 255.945 264.062 254.824 267.82 252.23C271.54 249.86 275.01 246.81 279.38 245.7C285.12 244.25 291.25 246.54 297.08 245.47C298.87 245.13 300.6 244.47 302.37 244.03C305.928 243.022 309.682 242.919 313.29 243.73C316.58 244.52 320.86 245.05 323.87 243.14C326.55 241.38 327.87 238.14 329.52 235.55C331.52 232.4 334.19 231.41 337.52 229.75C341.31 227.88 345.52 225.41 346.21 221.23C346.341 219.971 346.196 218.699 345.785 217.502C345.374 216.305 344.707 215.212 343.83 214.3C339.12 209.01 330.67 205.92 324.16 203.66C305.22 197.08 285.56 193.94 265.62 193Z" fill="white"/>
<path opacity="0.3" d="M150.06 219.2C150.49 222.07 152.7 224.2 155.7 225.47C158.22 226.56 160.96 227.18 163.27 228.66C164.48 229.42 165.63 230.96 164.85 232.14C164.574 232.469 164.225 232.731 163.831 232.904C163.438 233.077 163.01 233.158 162.58 233.14C158.503 233.237 154.499 232.043 151.14 229.73C149.715 228.867 148.449 227.764 147.4 226.47C146.307 225 145.635 223.258 145.459 221.434C145.283 219.61 145.608 217.773 146.4 216.12C147.291 214.37 148.684 212.925 150.4 211.97C151.266 211.482 152.2 211.125 153.17 210.91C153.55 210.83 154.57 210.54 154.76 211.02C154.95 211.5 154.13 211.79 153.88 211.96C153.43 212.27 152.99 212.58 152.57 212.96C152.055 213.364 151.582 213.819 151.16 214.32C150.729 214.83 150.421 215.432 150.26 216.08C149.989 217.097 149.921 218.157 150.06 219.2Z" fill="white"/>
<path opacity="0.3" d="M222.81 254.32C225.14 254.577 227.494 254.523 229.81 254.16C230.286 254.073 230.775 254.096 231.24 254.23C231.474 254.301 231.677 254.447 231.818 254.646C231.96 254.846 232.031 255.086 232.02 255.33C231.933 255.681 231.724 255.989 231.43 256.2C229.536 257.779 227.177 258.694 224.714 258.806C222.251 258.918 219.819 258.22 217.79 256.82C216.63 255.995 215.715 254.872 215.14 253.57C214.88 252.93 214.25 251.13 215.06 250.65C215.87 250.17 217.8 252.3 218.5 252.74C219.811 253.561 221.279 254.099 222.81 254.32Z" fill="white"/>
<path opacity="0.3" d="M302.8 247.44C301.72 247.83 299.63 249.28 302.14 249.44C303.31 249.54 304.56 249.44 305.74 249.44C309.036 249.462 312.318 249.868 315.52 250.65C319.7 251.65 324.67 253.38 328.89 251.65C332.03 250.38 334.05 247.28 335.25 244.12C335.678 243.148 335.877 242.091 335.83 241.03C335.803 240.5 335.627 239.988 335.323 239.553C335.019 239.118 334.599 238.777 334.11 238.57C333.574 238.444 333.013 238.462 332.486 238.624C331.959 238.786 331.484 239.084 331.11 239.49C330.365 240.315 329.696 241.205 329.11 242.15C322.58 251.19 311.38 244.31 302.8 247.44Z" fill="white"/>
<path opacity="0.3" d="M347 214C348.042 215.236 348.891 216.621 349.52 218.11C350.008 219.475 350.078 220.954 349.722 222.36C349.366 223.765 348.599 225.032 347.52 226C346.88 226.63 344.71 228 345.99 228.8C347.27 229.6 350.14 227.8 351.16 227.2C351.81 226.864 352.434 226.483 353.03 226.06C357.28 222.95 357.03 217.4 353.67 213.7C352.37 212.27 349.95 210.18 347.93 209.97C345.16 209.65 345.92 212.55 347 214Z" fill="white"/>
<path d="M165.6 218.06L182.52 230.56L208.22 236.32L214.78 237.96L227.81 246.01L261.77 245.78L290.52 237.39L315.15 238.7L336 221.4L330.47 180.71L316 165.32L302.26 177.3L278.78 128.15L270.52 134.07L246.12 93.24L235.23 110.51L229.48 125.31L207.6 130.56L192.45 170.7L177.35 176.13L165.6 218.06Z" fill="white"/>
<path opacity="0.05" d="M192.45 170.7L184.36 195.5L177.35 176.13L192.45 170.7Z" fill="#00A7FF"/>
<path opacity="0.05" d="M207.6 130.56L214.22 169.79L229.48 125.31L207.6 130.56Z" fill="#00A7FF"/>
<path opacity="0.05" d="M246.12 93.24L251.96 150.17L270.52 134.07L246.12 93.24Z" fill="#00A7FF"/>
<path opacity="0.05" d="M278.78 128.15L285.05 189.94L302.26 177.3L278.78 128.15Z" fill="#00A7FF"/>
<path opacity="0.05" d="M316 165.32L336 221.4L330.47 180.71L316 165.32Z" fill="#00A7FF"/>
<path opacity="0.3" d="M222.07 183.44L207.6 201.48L184.36 195.5L222.07 183.44Z" fill="#00A7FF"/>
<path opacity="0.1" d="M182.52 230.56L184.36 195.5L177.35 176.13L165.6 218.06L182.52 230.56Z" fill="#00A7FF"/>
<path opacity="0.1" d="M222.07 183.44L229.37 199.03L214.78 237.96L207.6 201.48L222.07 183.44Z" fill="#00A7FF"/>
<path opacity="0.3" d="M251.96 150.17L275.04 166.47H260.07L251.96 150.17Z" fill="#00A7FF"/>
<path opacity="0.1" d="M275.04 166.47L261.77 245.78L260.07 166.47H275.04Z" fill="#00A7FF"/>
<path opacity="0.3" d="M290.52 213.99L310.84 220.35L324.76 212.94L290.52 213.99Z" fill="#00A7FF"/>
<path opacity="0.1" d="M336 221.4L324.76 212.94L310.84 220.35L315.15 238.7L336 221.4Z" fill="#00A7FF"/>
<path opacity="0.05" d="M290.52 213.99V237.39L315.15 238.7L310.84 220.35L290.52 213.99Z" fill="#00A7FF"/>
<path opacity="0.15" d="M229.48 125.31L207.6 130.56L227.11 132.23L229.48 125.31Z" fill="#00A7FF"/>
<path opacity="0.15" d="M302.26 177.3L285.05 189.94L284.11 180.7L302.26 177.3Z" fill="#00A7FF"/>
<path opacity="0.05" d="M227.81 246.01L235.78 214.45L261.44 230.23L261.77 245.78L227.81 246.01Z" fill="#00A7FF"/>
<path opacity="0.05" d="M241.94 150.99L234.82 166.47L237.17 187.57L233.49 204.62L241.94 185.9L238.75 164.3L241.94 150.99Z" fill="#00A7FF"/>
<path opacity="0.05" d="M304.45 183.62L312.04 194.85L315.07 211.73L316 193.21L304.45 183.62Z" fill="#00A7FF"/>
<path d="M384.31 375.94C382.68 374.94 380.36 374.4 375.76 375.05C371.16 375.7 367.1 376.57 362.85 374.77C358.6 372.97 354.6 371.11 354.6 371.11C354.57 369.58 354.873 368.061 355.49 366.66C356.39 364.91 357.38 363.66 355.49 363.98C353.6 364.3 351.98 364.98 349.8 367.26C347.62 369.54 348.2 370.17 344.16 370.66C340.12 371.15 338.09 371.1 332.07 370.52C326.05 369.94 322.71 370.37 319.73 374.01C318.28 376.01 322.48 378.01 324.53 379.35C325.985 380.248 327.514 381.021 329.1 381.66C329.1 381.66 327.4 385.38 327.05 386.19C326.7 387 330.39 388 334.12 383.29C334.12 383.29 334.25 387.43 334.96 388.95C335.67 390.47 337.85 391.85 338.61 390.62C339.37 389.39 339.66 385.15 339.66 385.15C341.938 386.134 344.301 386.907 346.72 387.46C352.66 388.46 359.04 388.46 369.72 385.6C380.4 382.74 385.79 378.36 385.79 378.36C385.79 378.36 386.19 379.36 389.32 380.36C392.45 381.36 393.8 381.53 392.54 380.22C391.28 378.91 389.77 376.9 389.77 375.73C389.77 374.56 390.91 372.26 390.45 372.03C389.99 371.8 384.31 375.94 384.31 375.94Z" fill="#00A7FF"/>
<path opacity="0.5" d="M384.31 375.94C382.68 374.94 380.36 374.4 375.76 375.05C371.16 375.7 367.1 376.57 362.85 374.77C358.6 372.97 354.6 371.11 354.6 371.11C354.57 369.58 354.873 368.061 355.49 366.66C356.39 364.91 357.38 363.66 355.49 363.98C353.6 364.3 351.98 364.98 349.8 367.26C347.62 369.54 348.2 370.17 344.16 370.66C340.12 371.15 338.09 371.1 332.07 370.52C326.05 369.94 322.71 370.37 319.73 374.01C318.28 376.01 322.48 378.01 324.53 379.35C325.985 380.248 327.514 381.021 329.1 381.66C329.1 381.66 327.4 385.38 327.05 386.19C326.7 387 330.39 388 334.12 383.29C334.12 383.29 334.25 387.43 334.96 388.95C335.67 390.47 337.85 391.85 338.61 390.62C339.37 389.39 339.66 385.15 339.66 385.15C341.938 386.134 344.301 386.907 346.72 387.46C352.66 388.46 359.04 388.46 369.72 385.6C380.4 382.74 385.79 378.36 385.79 378.36C385.79 378.36 386.19 379.36 389.32 380.36C392.45 381.36 393.8 381.53 392.54 380.22C391.28 378.91 389.77 376.9 389.77 375.73C389.77 374.56 390.91 372.26 390.45 372.03C389.99 371.8 384.31 375.94 384.31 375.94Z" fill="black"/>
<path d="M331.5 377.75C328.79 376.39 322.74 375.56 319.5 374.55C319.04 376.39 322.68 378.16 324.5 379.35C325.955 380.248 327.484 381.021 329.07 381.66L333.28 383C335.38 380.53 334.61 379.32 331.5 377.75Z" fill="#00A7FF"/>
<path d="M324.78 373.62C325.07 374.1 326.46 374.62 328.53 374.75C329.991 374.898 331.466 374.838 332.91 374.57C333.26 374.39 332.99 373.88 330.91 372.91C330.255 372.524 329.529 372.271 328.776 372.167C328.023 372.062 327.256 372.107 326.52 372.3C325 372.62 324.61 373.35 324.78 373.62Z" fill="#00A7FF"/>
<path d="M367.58 379.09C364.01 378.71 360.26 381.72 356.95 384.15C353.64 386.58 350.9 387.96 348.19 387.69C353.44 388.43 359.27 388.24 368.19 385.99C367.11 386.25 366.68 385.28 365.44 385.15C364.2 385.02 363.94 386.28 362.63 386.4C361.32 386.52 360.94 385.84 361.77 384.77C362.6 383.7 367.26 383.47 369.01 382.03C370.76 380.59 371.14 379.46 367.58 379.09Z" fill="#00A7FF"/>
<path d="M385.8 378.36L384.32 377.5C383.32 376.91 383.87 377.75 383.58 378.78C383.184 379.62 382.578 380.344 381.82 380.88C383.214 380.152 384.545 379.309 385.8 378.36Z" fill="#00A7FF"/>
<path d="M84.4699 344.72C86.5599 343.45 89.5399 342.72 95.4699 343.57C101.4 344.42 106.57 345.52 112.02 343.21C117.47 340.9 122.59 338.52 122.59 338.52C122.631 336.556 122.242 334.607 121.45 332.81C120.3 330.57 119.03 329 121.45 329.38C123.87 329.76 125.95 330.68 128.74 333.59C131.53 336.5 130.79 337.31 135.97 337.95C141.15 338.59 143.75 338.51 151.46 337.77C159.17 337.03 163.46 337.58 167.28 342.24C169.13 344.85 163.75 347.4 161.12 349.09C159.257 350.252 157.301 351.256 155.27 352.09C155.27 352.09 157.45 356.86 157.89 357.9C158.33 358.94 153.62 360.22 148.89 354.18C148.89 354.18 148.72 359.48 147.81 361.43C146.98 363.22 144.11 365.15 143.13 363.58C142.15 362.01 141.79 356.58 141.79 356.58C138.888 357.852 135.875 358.856 132.79 359.58C125.18 360.92 117 360.86 103.3 357.2C89.5999 353.54 82.7099 347.92 82.7099 347.92C82.7099 347.92 82.1999 349.26 78.1799 350.53C74.1599 351.8 72.4399 352.03 74.0599 350.35C75.6799 348.67 77.5999 346.1 77.5999 344.6C77.5999 343.1 75.9999 340 76.5999 339.74C77.1999 339.48 84.4699 344.72 84.4699 344.72Z" fill="#00A7FF"/>
<path opacity="0.5" d="M84.4699 344.72C86.5599 343.45 89.5399 342.72 95.4699 343.57C101.4 344.42 106.57 345.52 112.02 343.21C117.47 340.9 122.59 338.52 122.59 338.52C122.631 336.556 122.242 334.607 121.45 332.81C120.3 330.57 119.03 329 121.45 329.38C123.87 329.76 125.95 330.68 128.74 333.59C131.53 336.5 130.79 337.31 135.97 337.95C141.15 338.59 143.75 338.51 151.46 337.77C159.17 337.03 163.46 337.58 167.28 342.24C169.13 344.85 163.75 347.4 161.12 349.09C159.257 350.252 157.301 351.256 155.27 352.09C155.27 352.09 157.45 356.86 157.89 357.9C158.33 358.94 153.62 360.22 148.89 354.18C148.89 354.18 148.72 359.48 147.81 361.43C146.98 363.22 144.11 365.15 143.13 363.58C142.15 362.01 141.79 356.58 141.79 356.58C138.888 357.852 135.875 358.856 132.79 359.58C125.18 360.92 117 360.86 103.3 357.2C89.5999 353.54 82.7099 347.92 82.7099 347.92C82.7099 347.92 82.1999 349.26 78.1799 350.53C74.1599 351.8 72.4399 352.03 74.0599 350.35C75.6799 348.67 77.5999 346.1 77.5999 344.6C77.5999 343.1 75.9999 340 76.5999 339.74C77.1999 339.48 84.4699 344.72 84.4699 344.72Z" fill="black"/>
<path d="M152.15 347C155.62 345.25 163.38 344.19 167.55 342.9C168.14 345.26 163.48 347.52 161.08 349.06C159.217 350.222 157.261 351.226 155.23 352.06L149.84 353.78C147.18 350.59 148.18 349 152.15 347Z" fill="#00A7FF"/>
<path d="M160.77 341.74C160.4 342.35 158.62 343.01 155.96 343.18C154.089 343.368 152.2 343.294 150.35 342.96C149.9 342.73 150.24 342.07 152.85 340.82C154.549 339.834 156.567 339.554 158.47 340.04C160.52 340.45 161 341.39 160.77 341.74Z" fill="#00A7FF"/>
<path d="M105.92 348.75C110.49 348.27 115.29 352.11 119.54 355.24C123.79 358.37 127.29 360.12 130.77 359.77C124.04 360.77 116.57 360.47 105.12 357.59C106.51 357.93 107.05 356.68 108.64 356.52C110.23 356.36 110.57 357.96 112.25 358.12C113.93 358.28 114.41 357.4 113.35 356.03C112.29 354.66 106.35 354.36 104.08 352.51C101.81 350.66 101.35 349.23 105.92 348.75Z" fill="#00A7FF"/>
<path d="M82.5698 347.81L84.4598 346.71C85.7798 345.95 85.0398 347.03 85.4598 348.35C85.9562 349.406 86.7134 350.318 87.6598 351C85.8763 350.082 84.1736 349.015 82.5698 347.81Z" fill="#00A7FF"/>
<path d="M397.99 95.77C404.722 95.77 410.18 90.3124 410.18 83.58C410.18 76.8477 404.722 71.39 397.99 71.39C391.257 71.39 385.8 76.8477 385.8 83.58C385.8 90.3124 391.257 95.77 397.99 95.77Z" fill="#00A7FF"/>
</g>
<defs>
<clipPath id="clip0">
<rect width="500" height="500" fill="white"/>
</clipPath>
</defs>
</svg>
